<?xml version="1.0" standalone="no"?>
<!DOCTYPE svg PUBLIC "-//W3C//DTD SVG 1.1//EN" "http://www.w3.org/Graphics/SVG/1.1/DTD/svg11.dtd">
<svg version="1.1" xmlns="http://www.w3.org/2000/svg" viewBox="0 0 951.5202526275652 262.75" width="2854.5607578826957" height="788.25" filter="invert(93%) hue-rotate(180deg)"><!-- svg-source:excalidraw --><metadata></metadata><defs><style class="style-fonts">
      </style></defs><g stroke-linecap="round"><g transform="translate(150.69888066968042 10) rotate(0 0.15025549713163855 121)"><path d="M0 0 C-0.19 87.89, -0.65 180.37, 0 242 M0 0 C1.37 75.64, 0.12 149.97, 0 242" stroke="#1e1e1e" stroke-width="4" fill="none"></path></g></g><mask></mask><g stroke-linecap="round"><g transform="translate(295.1988806696804 134.81178367039251) rotate(0 -142.5994403348402 0.6478801330761144)"><path d="M0 0 C-61.19 1.08, -122.94 2.27, -285.2 0 M0 0 C-108.16 1.76, -215.4 0.8, -285.2 0" stroke="#1e1e1e" stroke-width="4" fill="none"></path></g></g><mask></mask><g stroke-linecap="round" transform="translate(160.19888066968042 81) rotate(0 23.5 23.25)"><path d="M0 0 C9.83 0.2, 19.86 0.44, 47 0 M0 0 C17.88 0.34, 36.36 0.12, 47 0 M47 0 C46.64 16.7, 47.84 30.87, 47 46.5 M47 0 C46.97 13.41, 47.01 28.07, 47 46.5 M47 46.5 C32.77 46.07, 18.04 47.13, 0 46.5 M47 46.5 C32.42 46.85, 17.31 46.17, 0 46.5 M0 46.5 C-0.08 27.64, -0.17 10.69, 0 0 M0 46.5 C0.25 36.65, -0.45 26.27, 0 0" stroke="#1e1e1e" stroke-width="4" fill="none"></path></g><g stroke-linecap="round" transform="translate(218.19888066968042 81.75) rotate(0 23.5 23.25)"><path d="M0 0 C19.13 -0.39, 37.66 0.94, 47 0 M0 0 C13.04 0.15, 26.69 -0.09, 47 0 M47 0 C46.44 13.63, 47.52 27.96, 47 46.5 M47 0 C47.42 13.36, 47.1 26.51, 47 46.5 M47 46.5 C29.58 46.19, 13.24 46.24, 0 46.5 M47 46.5 C32.94 46.33, 19.01 46.92, 0 46.5 M0 46.5 C0.45 32.21, 0.74 15.22, 0 0 M0 46.5 C-0.51 28.99, -0.47 11.4, 0 0" stroke="#1e1e1e" stroke-width="4" fill="none"></path></g><g stroke-linecap="round" transform="translate(161.69888066968042 24.25) rotate(0 23.5 23.25)"><path d="M0 0 C16.91 0.94, 33.1 -0.1, 47 0 M0 0 C13.49 0.6, 26.47 -0.06, 47 0 M47 0 C48.13 15.38, 47.55 29.57, 47 46.5 M47 0 C46.62 17.56, 46.47 34.86, 47 46.5 M47 46.5 C35.85 47.43, 23.76 47.08, 0 46.5 M47 46.5 C29.79 46.73, 13.59 46.3, 0 46.5 M0 46.5 C-0.74 30.87, 0.06 15.66, 0 0 M0 46.5 C0.39 29.69, -0.52 13.62, 0 0" stroke="#1e1e1e" stroke-width="4" fill="none"></path></g><g stroke-linecap="round" transform="translate(161.19888066968042 147.75) rotate(0 23.5 23.25)"><path d="M0 0 C11.06 -0.9, 22.88 0.38, 47 0 M0 0 C12.47 -0.1, 25.47 0.23, 47 0 M47 0 C46.28 9.93, 46.13 19.47, 47 46.5 M47 0 C46.45 15.7, 47.12 32.66, 47 46.5 M47 46.5 C30.6 46.99, 13.83 47.26, 0 46.5 M47 46.5 C29.29 46.26, 12.54 46.25, 0 46.5 M0 46.5 C-1.04 29.77, -1.02 14.3, 0 0 M0 46.5 C-0.38 29.45, 0.33 12.12, 0 0" stroke="#1e1e1e" stroke-width="4" fill="none"></path></g><g stroke-linecap="round" transform="translate(220.19888066968042 148.75) rotate(0 23.5 23.25)"><path d="M0 0 C17.6 -0.51, 33.45 -0.64, 47 0 M0 0 C18.3 0.22, 36.04 -0.58, 47 0 M47 0 C47.26 9.27, 46.53 19.86, 47 46.5 M47 0 C47.61 13.59, 47.48 26.22, 47 46.5 M47 46.5 C33.21 46.58, 17.59 46.51, 0 46.5 M47 46.5 C29.09 47.05, 9.91 46.45, 0 46.5 M0 46.5 C-0.49 31.47, 0.75 15.39, 0 0 M0 46.5 C-0.27 36.07, 0.06 26.15, 0 0" stroke="#1e1e1e" stroke-width="4" fill="none"></path></g><g stroke-linecap="round" transform="translate(160.69888066968042 203.75) rotate(0 23.5 23.25)"><path d="M0 0 C10.84 -0.9, 21.94 0.81, 47 0 M0 0 C17.15 0.4, 34.08 0.15, 47 0 M47 0 C46.21 15.41, 46.72 28.24, 47 46.5 M47 0 C46.53 15.78, 47.05 31.31, 47 46.5 M47 46.5 C33.18 47.19, 18.49 46.19, 0 46.5 M47 46.5 C34.11 46.61, 21.04 46.51, 0 46.5 M0 46.5 C0.03 37.55, 0.04 28.56, 0 0 M0 46.5 C0.33 36.83, -0.09 26.31, 0 0" stroke="#1e1e1e" stroke-width="4" fill="none"></path></g><g stroke-linecap="round" transform="translate(93.69888066968042 148.75) rotate(0 23.5 23.25)"><path d="M0 0 C17.51 -0.98, 36.5 -0.59, 47 0 M0 0 C16.37 0.24, 32.95 0.51, 47 0 M47 0 C46.71 10.91, 46.02 20.4, 47 46.5 M47 0 C47.48 13.34, 46.82 25.69, 47 46.5 M47 46.5 C37.34 45.64, 26.4 46.04, 0 46.5 M47 46.5 C28.14 46.15, 9.6 45.94, 0 46.5 M0 46.5 C-0.09 28.56, 0.8 10.68, 0 0 M0 46.5 C-0.32 28.19, -0.17 10.56, 0 0" stroke="#1e1e1e" stroke-width="4" fill="none"></path></g><g stroke-linecap="round" transform="translate(93.69888066968042 206.25) rotate(0 23.5 23.25)"><path d="M0 0 C12.59 0.3, 23.91 -0.7, 47 0 M0 0 C11.1 -0.33, 23.33 0, 47 0 M47 0 C48.01 9.25, 47.17 19.4, 47 46.5 M47 0 C47.39 13.01, 46.53 26.47, 47 46.5 M47 46.5 C29.93 46.49, 12.36 46.23, 0 46.5 M47 46.5 C31.51 47.04, 16.72 46.23, 0 46.5 M0 46.5 C0.6 28.73, -0.56 11.2, 0 0 M0 46.5 C-0.07 32.12, 0.61 18.68, 0 0" stroke="#1e1e1e" stroke-width="4" fill="none"></path></g><g stroke-linecap="round" transform="translate(92.69888066968042 79.25) rotate(0 23.5 23.25)"><path d="M0 0 C13.08 -0.17, 25.83 0.85, 47 0 M0 0 C17.1 -0.4, 33.7 -0.21, 47 0 M47 0 C46.9 10.06, 46.65 20.97, 47 46.5 M47 0 C47.39 18.42, 47.42 36.16, 47 46.5 M47 46.5 C33.97 47.58, 18.85 45.94, 0 46.5 M47 46.5 C37.52 46.2, 27.54 46.19, 0 46.5 M0 46.5 C-0.91 33.25, 0.39 20.58, 0 0 M0 46.5 C-0.34 33.75, -0.15 19.86, 0 0" stroke="#1e1e1e" stroke-width="4" fill="none"></path></g><g stroke-linecap="round" transform="translate(92.69888066968042 23.25) rotate(0 23.5 23.25)"><path d="M0 0 C18.62 -0.44, 37.8 1, 47 0 M0 0 C17.58 -0.4, 34.08 -0.4, 47 0 M47 0 C46.19 13.36, 46.8 25.52, 47 46.5 M47 0 C46.56 14.55, 46.95 28.8, 47 46.5 M47 46.5 C31.83 46.42, 17.1 46.06, 0 46.5 M47 46.5 C29.14 46.09, 11.19 46.43, 0 46.5 M0 46.5 C1.05 28.92, 1.04 11.95, 0 0 M0 46.5 C-0.16 32.55, -0.06 18.66, 0 0" stroke="#1e1e1e" stroke-width="4" fill="none"></path></g><g stroke-linecap="round"><g transform="translate(473.82634149180194 10.375) rotate(0 -0.4970104085152798 121)"><path d="M0 0 C-1.53 94.41, -1.1 193.51, 0 242 M0 0 C-0.93 60.23, -0.9 121.18, 0 242" stroke="#1e1e1e" stroke-width="4" fill="none"></path></g></g><mask></mask><g stroke-linecap="round"><g transform="translate(598.076037323774 214.22711986692389) rotate(0 -124.81047260401851 -72.05935995561458)"><path d="M0 0 C-84.4 -49.09, -166.08 -97.06, -249.62 -144.12 M0 0 C-62.22 -35.02, -123.32 -70.48, -249.62 -144.12" stroke="#1e1e1e" stroke-width="4" fill="none"></path></g></g><mask></mask><g stroke-linecap="round" transform="translate(497.47659698893403 105.625) rotate(29.999999999999964 23.5 23.25)"><path d="M0 0 C12.02 0.04, 23.38 0.67, 47 0 M0 0 C9.78 -0.04, 18.73 0.26, 47 0 M47 0 C46.59 12, 46.56 23.28, 47 46.5 M47 0 C46.38 18.28, 46.44 36.62, 47 46.5 M47 46.5 C28.89 46.26, 11.49 46.02, 0 46.5 M47 46.5 C36 46.57, 25.02 45.96, 0 46.5 M0 46.5 C-0.95 28.17, 0.78 10.57, 0 0 M0 46.5 C-0.41 35.19, -0.23 24.11, 0 0" stroke="#1e1e1e" stroke-width="4" fill="none"></path></g><g stroke-linecap="round" transform="translate(546.9765969889345 134.62499999999977) rotate(29.999999999999964 23.5 23.25)"><path d="M0 0 C14.9 -0.01, 27.25 -0.4, 47 0 M0 0 C14.13 0.05, 28.02 0.18, 47 0 M47 0 C47.36 10.03, 47.42 21.3, 47 46.5 M47 0 C47.23 12.16, 47.11 24, 47 46.5 M47 46.5 C34.17 47.43, 19.5 46.78, 0 46.5 M47 46.5 C36.31 46.23, 26.26 46.91, 0 46.5 M0 46.5 C0.08 28.24, 0.83 11.04, 0 0 M0 46.5 C-0.07 28.89, -0.01 10.6, 0 0" stroke="#1e1e1e" stroke-width="4" fill="none"></path></g><g stroke-linecap="round" transform="translate(494.9765969889345 183.12499999999977) rotate(29.999999999999964 23.5 23.25)"><path d="M0 0 C16.69 0.93, 32.84 0.68, 47 0 M0 0 C11.41 -0.21, 23.33 -0.32, 47 0 M47 0 C47.34 10.42, 47.68 22.99, 47 46.5 M47 0 C47.37 17.6, 46.99 34.3, 47 46.5 M47 46.5 C29.17 46.6, 12.18 45.85, 0 46.5 M47 46.5 C34.48 46.28, 22.62 46.36, 0 46.5 M0 46.5 C0.78 33.36, 0.88 20.12, 0 0 M0 46.5 C-0.34 33.48, -0.44 20.09, 0 0" stroke="#1e1e1e" stroke-width="4" fill="none"></path></g><g stroke-linecap="round" transform="translate(415.4765969889345 48.62499999999977) rotate(0 23.5 23.25)"><path d="M0 0 C12.02 -0.64, 22.54 -0.52, 47 0 M0 0 C18 -0.64, 35.62 -0.4, 47 0 M47 0 C47.13 10.2, 48.17 21.22, 47 46.5 M47 0 C47.22 15.57, 47.28 30.87, 47 46.5 M47 46.5 C30.53 46.53, 13.61 46.62, 0 46.5 M47 46.5 C29.84 46.13, 11.85 46.16, 0 46.5 M0 46.5 C-0.39 31.23, 0.03 14.91, 0 0 M0 46.5 C0.07 35.55, -0.03 25.12, 0 0" stroke="#1e1e1e" stroke-width="4" fill="none"></path></g><g stroke-linecap="round" transform="translate(401.4765969889345 132.12499999999977) rotate(29.999999999999964 23.5 23.25)"><path d="M0 0 C17.91 0.49, 36.25 0.3, 47 0 M0 0 C11.47 -0.57, 22.32 -0.53, 47 0 M47 0 C47.16 15.12, 48.02 30.36, 47 46.5 M47 0 C46.53 10.22, 46.86 20.96, 47 46.5 M47 46.5 C31.84 46.85, 15.54 46.51, 0 46.5 M47 46.5 C32.29 46.42, 17.74 46.22, 0 46.5 M0 46.5 C-0.27 37.07, 0.89 26.04, 0 0 M0 46.5 C-0.23 28.22, -0.53 9.44, 0 0" stroke="#1e1e1e" stroke-width="4" fill="none"></path></g><g stroke-linecap="round" transform="translate(348.4765969889345 102.12499999999977) rotate(29.999999999999964 23.5 23.25)"><path d="M0 0 C12 -0.37, 23.99 -0.39, 47 0 M0 0 C13.85 0.16, 28.85 -0.03, 47 0 M47 0 C46.8 16.84, 46.4 34.75, 47 46.5 M47 0 C47.36 15.07, 47.26 30.09, 47 46.5 M47 46.5 C30.87 47.46, 14.35 46.34, 0 46.5 M47 46.5 C30.7 46.8, 14.55 46.81, 0 46.5 M0 46.5 C0.81 35.39, 0.28 22.67, 0 0 M0 46.5 C0.02 34.79, -0.52 22.6, 0 0" stroke="#1e1e1e" stroke-width="4" fill="none"></path></g><g stroke-linecap="round" transform="translate(417.4765969889345 199.12499999999977) rotate(0 23.5 23.25)"><path d="M0 0 C13.71 0.6, 27.36 0.25, 47 0 M0 0 C14.9 0.2, 29.8 -0.32, 47 0 M47 0 C46.98 12.99, 47.49 24.52, 47 46.5 M47 0 C46.74 15.16, 47.62 30.15, 47 46.5 M47 46.5 C35.36 46.78, 25.31 46.87, 0 46.5 M47 46.5 C31.31 45.93, 14.93 46.42, 0 46.5 M0 46.5 C-0.45 29.62, 0.18 11.34, 0 0 M0 46.5 C0.08 31.54, -0.13 15.53, 0 0" stroke="#1e1e1e" stroke-width="4" fill="none"></path></g><g stroke-linecap="round"><g transform="translate(777.9575925837285 10.375) rotate(0 -0.22538920423221498 121)"><path d="M0 0 C1.35 72.53, 0.46 145.24, 0 242 M0 0 C-0.69 58.2, -2.24 117.28, 0 242" stroke="#1e1e1e" stroke-width="4" fill="none"></path></g></g><mask></mask><g stroke-linecap="round"><g transform="translate(897.7710547792312 236.43435995561435) rotate(0 -125.44350131473584 -71.8789248606322)"><path d="M-1.14 0.26 C-18.65 -19.22, -63.7 -91.69, -105.21 -115.73 C-146.73 -139.78, -225.99 -139.4, -250.25 -144.02 M0.46 -0.65 C-16.66 -19.48, -61.01 -90.88, -102.98 -114.55 C-144.94 -138.21, -226.66 -137.47, -251.35 -142.65" stroke="#1e1e1e" stroke-width="4" fill="none"></path></g></g><mask></mask><g stroke-linecap="round" transform="translate(717.9605821752125 45.62499999999977) rotate(9.462322208025673 23.5 23.25)"><path d="M0 0 C14.26 0.06, 28.8 0.92, 47 0 M0 0 C12.8 0.21, 26.52 0, 47 0 M47 0 C46.99 14.18, 47.36 29.41, 47 46.5 M47 0 C46.68 17.74, 47.2 35.82, 47 46.5 M47 46.5 C37.36 46.38, 27.67 46.74, 0 46.5 M47 46.5 C35.87 46.46, 25.26 46.78, 0 46.5 M0 46.5 C0.54 28.59, 0.44 12.88, 0 0 M0 46.5 C0.12 32.47, 0.34 18.49, 0 0" stroke="#1e1e1e" stroke-width="4" fill="none"></path></g><g stroke-linecap="round" transform="translate(711.9605821752125 115.62499999999977) rotate(9.833563964207153 23.5 23.25)"><path d="M0 0 C12.26 0.5, 23.19 -0.89, 47 0 M0 0 C12.66 -0.19, 24.45 0.13, 47 0 M47 0 C46.15 10.39, 46.45 22.41, 47 46.5 M47 0 C47.02 13.66, 47.26 27.02, 47 46.5 M47 46.5 C29.02 45.73, 10.95 45.8, 0 46.5 M47 46.5 C28.5 46.49, 10.15 46.82, 0 46.5 M0 46.5 C-0.45 34.04, -0.86 23.52, 0 0 M0 46.5 C-0.32 30.79, -0.29 15.27, 0 0" stroke="#1e1e1e" stroke-width="4" fill="none"></path></g><g stroke-linecap="round" transform="translate(651.9605821752125 107.625) rotate(4.6533515872683635 23.5 23.25)"><path d="M0 0 C16.99 0.07, 33.44 -0.54, 47 0 M0 0 C10.57 0.3, 21.62 0.07, 47 0 M47 0 C47.59 12.54, 46.38 25.45, 47 46.5 M47 0 C46.5 11.2, 46.71 23.42, 47 46.5 M47 46.5 C28.01 45.8, 10.5 46.64, 0 46.5 M47 46.5 C29.91 46.45, 12.55 46.21, 0 46.5 M0 46.5 C0.91 35.3, 1.03 24.81, 0 0 M0 46.5 C-0.1 35.02, 0.14 23.11, 0 0" stroke="#1e1e1e" stroke-width="4" fill="none"></path></g><g stroke-linecap="round" transform="translate(661.9605821752125 37.625) rotate(5.505477857978357 23.5 23.25)"><path d="M0 0 C16.81 0.62, 33.59 -0.96, 47 0 M0 0 C17.64 0.34, 36.39 -0.26, 47 0 M47 0 C46.02 16.03, 47.06 31.1, 47 46.5 M47 0 C46.8 12.79, 47.19 25.4, 47 46.5 M47 46.5 C37.14 47.09, 25.48 46.43, 0 46.5 M47 46.5 C36.13 46.24, 25.93 46.04, 0 46.5 M0 46.5 C0.85 32.93, -0.59 20.29, 0 0 M0 46.5 C-0.51 37.09, 0.22 27.38, 0 0" stroke="#1e1e1e" stroke-width="4" fill="none"></path></g><g stroke-linecap="round" transform="translate(795.4605821752125 166.625) rotate(49.76364169072618 23.5 23.25)"><path d="M0 0 C13.55 0.49, 28.71 0.52, 47 0 M0 0 C13.88 -0.02, 27.68 0.12, 47 0 M47 0 C47.35 17.28, 47.48 33.23, 47 46.5 M47 0 C47.13 10.26, 47.19 20.2, 47 46.5 M47 46.5 C34.73 45.48, 24.62 46.37, 0 46.5 M47 46.5 C33.02 46.56, 19.85 46.89, 0 46.5 M0 46.5 C-0.07 30.67, -0.54 15.3, 0 0 M0 46.5 C0.18 33.28, 0.45 21.49, 0 0" stroke="#1e1e1e" stroke-width="4" fill="none"></path></g><g stroke-linecap="round" transform="translate(800.4605821752125 77.625) rotate(37.40535663140857 23.5 23.25)"><path d="M0 0 C12.5 0.37, 25.95 0.59, 47 0 M0 0 C13.46 -0.24, 26.95 0.28, 47 0 M47 0 C47.48 8.74, 47.27 19.42, 47 46.5 M47 0 C47.01 17.18, 47.28 34.98, 47 46.5 M47 46.5 C29.25 46.58, 10.04 46.34, 0 46.5 M47 46.5 C34.84 45.91, 22.03 46.84, 0 46.5 M0 46.5 C0.93 37.3, 0.47 26.8, 0 0 M0 46.5 C0.43 35.76, -0.48 24.78, 0 0" stroke="#1e1e1e" stroke-width="4" fill="none"></path></g><g stroke-linecap="round" transform="translate(846.9605821752125 121.625) rotate(52.46519085612142 23.5 23.25)"><path d="M0 0 C12.63 0.74, 27.96 -0.73, 47 0 M0 0 C13.15 -0.34, 26 0.03, 47 0 M47 0 C47.7 16.46, 47.81 34.14, 47 46.5 M47 0 C47.07 12.47, 46.39 25.08, 47 46.5 M47 46.5 C32.08 45.56, 15.54 46.82, 0 46.5 M47 46.5 C36.21 46.61, 24.78 46.33, 0 46.5 M0 46.5 C0.81 35.88, -0.08 24.96, 0 0 M0 46.5 C-0.04 31.02, 0.02 15.04, 0 0" stroke="#1e1e1e" stroke-width="4" fill="none"></path></g><g stroke-linecap="round" transform="translate(885.4605821752125 171.625) rotate(54.65183346680427 23.5 23.25)"><path d="M0 0 C12.95 0.61, 26.58 0.44, 47 0 M0 0 C14.24 0.07, 27.38 0.57, 47 0 M47 0 C46.71 10.92, 46.68 23.08, 47 46.5 M47 0 C46.96 17.36, 47.5 34.31, 47 46.5 M47 46.5 C29.18 46.09, 9.42 45.45, 0 46.5 M47 46.5 C35.22 46.16, 24.28 46.7, 0 46.5 M0 46.5 C-0.27 35.46, 0.69 26.66, 0 0 M0 46.5 C0.36 29.44, -0.12 12.46, 0 0" stroke="#1e1e1e" stroke-width="4" fill="none"></path></g><g stroke-linecap="round" transform="translate(719.4605821752125 179.62499999999977) rotate(89.99999999999994 23.5 23.25)"><path d="M0 0 C10.25 0.08, 18.64 -0.3, 47 0 M0 0 C14.98 -0.24, 29.43 0.27, 47 0 M47 0 C46.18 12.44, 47.52 25.74, 47 46.5 M47 0 C47.29 17.84, 47.17 35.86, 47 46.5 M47 46.5 C33.28 46.42, 19.51 45.69, 0 46.5 M47 46.5 C28.39 46.31, 10.31 46.36, 0 46.5 M0 46.5 C-0.62 35.19, 0.61 26.24, 0 0 M0 46.5 C-0.08 34.01, 0.03 21.24, 0 0" stroke="#1e1e1e" stroke-width="4" fill="none"></path></g></svg>