<?xml version="1.0" standalone="no"?>
<!DOCTYPE svg PUBLIC "-//W3C//DTD SVG 1.1//EN" "http://www.w3.org/Graphics/SVG/1.1/DTD/svg11.dtd">
<svg version="1.1" xmlns="http://www.w3.org/2000/svg" viewBox="0 0 312.3968946247278 262" width="937.1906838741834" height="786" filter="invert(93%) hue-rotate(180deg)"><!-- svg-source:excalidraw --><metadata></metadata><defs><style class="style-fonts">
      </style></defs><g stroke-linecap="round"><g transform="translate(144.06535183874712 10) rotate(0 0.2616331325216379 121)"><path d="M0 0 C0.19 86.53, 1.1 175.7, 0 242 M0 0 C0.66 89.51, -0.1 179.5, 0 242" stroke="#1e1e1e" stroke-width="4" fill="none"></path></g></g><mask></mask><g stroke-linecap="round"><g transform="translate(263.87881403424944 236.05935995561458) rotate(0 -124.68141961231913 -72.01934626420422)"><path d="M-0.75 -0.1 C-18.21 -19.01, -62.43 -90.24, -103.91 -114.21 C-145.39 -138.18, -225.52 -138.89, -249.64 -143.94 M1.05 -1.2 C-16.6 -20.37, -62.73 -92.33, -104.65 -115.89 C-146.56 -139.44, -226.55 -137.91, -250.42 -142.52" stroke="#1e1e1e" stroke-width="4" fill="none"></path></g></g><mask></mask><g stroke-linecap="round"><g transform="translate(152.60473186060426 128.9704049221259) rotate(0 22.536820120873017 30.10162687473246)"><path d="M0 0 C2.3 18.99, 0.48 35.91, 0.32 60.2 M0 0 C0.5 13.46, 0.96 24.92, 0.32 60.2 M0.32 60.2 C18.04 49.64, 33.44 40.6, 45.07 36.25 M0.32 60.2 C13.37 53.18, 26 46.47, 45.07 36.25 M45.07 36.25 C28.29 21, 12.35 10.42, 0 0 M45.07 36.25 C34.34 28.34, 23.99 19.97, 0 0" stroke="#1e1e1e" stroke-width="4" fill="none"></path></g></g><mask></mask><g stroke-linecap="round"><g transform="translate(134.63831582018702 100.60237959515246) rotate(0 -25.058422372159157 -29.786426593321607)"><path d="M0 0 C-21.25 -4.82, -39.56 -6.32, -51.69 -9.46 M0 0 C-16.11 -2.19, -30.25 -4.79, -51.69 -9.46 M-51.69 -9.46 C-51.01 -28.07, -47.73 -43.72, -43.18 -59.57 M-51.69 -9.46 C-49.63 -20.29, -48.6 -30.69, -43.18 -59.57 M-43.18 -59.57 C-30.41 -58.46, -17.66 -55.8, 1.58 -54.53 M-43.18 -59.57 C-30.78 -57.72, -20.78 -56.89, 1.58 -54.53 M1.58 -54.53 C-0.42 -38.83, -1.16 -26.22, 0 0 M1.58 -54.53 C0.25 -43.08, -0.42 -29.55, 0 0" stroke="#1e1e1e" stroke-width="4" fill="none"></path></g></g><mask></mask><g stroke-linecap="round"><g transform="translate(152.30686642541968 107.94108751758438) rotate(0 31.621142220649062 -8.873917382079412)"><path d="M0 0 C11.16 7.14, 20.71 15.07, 38.5 24.75 M0 0 C12.65 9.24, 27.85 17.67, 38.5 24.75 M38.5 24.75 C44.47 17.52, 49.3 13.17, 63.24 -2.25 M38.5 24.75 C46.17 15.49, 54.82 7.74, 63.24 -2.25 M63.24 -2.25 C44.05 -16.37, 24.29 -28.03, 1 -42.49 M63.24 -2.25 C46.55 -12.98, 29.57 -24.48, 1 -42.49 M1 -42.49 C-1.03 -27.32, 1.52 -15.87, 0 0 M1 -42.49 C-0.15 -31.2, 0.25 -18.89, 0 0" stroke="#1e1e1e" stroke-width="4" fill="none"></path></g></g><mask></mask><g stroke-linecap="round"><g transform="translate(216.29905937787908 92.44297828691094) rotate(0 -25.482720980793147 -38.87025782854488)"><path d="M0 0 C-14.72 -8.55, -31.18 -20.4, -63.74 -38.25 M0 0 C-20.92 -12.79, -41.37 -25.7, -63.74 -38.25 M-63.74 -38.25 C-64.64 -48.79, -62.47 -56.19, -63.49 -77.74 M-63.74 -38.25 C-63.09 -52.07, -63.98 -64.92, -63.49 -77.74 M-63.49 -77.74 C-42.77 -65.23, -22.25 -58.03, 13 -37.5 M-63.49 -77.74 C-43.37 -68.05, -22.06 -56.49, 13 -37.5 M13 -37.5 C9.01 -29.11, 6.63 -20.6, 0 0 M13 -37.5 C9.43 -28.76, 6.91 -20.02, 0 0" stroke="#1e1e1e" stroke-width="4" fill="none"></path></g></g><mask></mask><g stroke-linecap="round"><g transform="translate(194.82914280227487 136.0198281008146) rotate(0 29.126924756213384 4.325780904388125)"><path d="M0 0 C8.12 -6.26, 14.33 -14.65, 25.09 -26.82 M0 0 C6.75 -7.72, 13.38 -15.18, 25.09 -26.82 M25.09 -26.82 C37.52 -12.5, 48.62 2.14, 58.25 15 M25.09 -26.82 C33.31 -16.87, 39.78 -8.57, 58.25 15 M58.25 15 C51.76 21.01, 44.8 24.9, 29.99 35.47 M58.25 15 C51.17 21.16, 43.76 26.55, 29.99 35.47 M29.99 35.47 C23.19 27.61, 17.85 20.41, 0 0 M29.99 35.47 C20.08 24.53, 10.22 13.71, 0 0" stroke="#1e1e1e" stroke-width="4" fill="none"></path></g></g><mask></mask><g stroke-linecap="round"><g transform="translate(228.85861925012932 177.2589393893146) rotate(0 36.769137687299235 16.72635283030081)"><path d="M0 0 C13.23 17.58, 32.5 38.72, 41.53 53.06 M0 0 C7.6 11.32, 15.44 21.19, 41.53 53.06 M41.53 53.06 C49.11 47.02, 55.73 43.39, 73.54 28.55 M41.53 53.06 C54.35 43.84, 65.62 34.65, 73.54 28.55 M73.54 28.55 C61.75 18.19, 51.51 4.89, 30.57 -19.61 M73.54 28.55 C57.97 11.96, 42.72 -6.65, 30.57 -19.61 M30.57 -19.61 C18.28 -13.68, 6.92 -3.39, 0 0 M30.57 -19.61 C22.91 -14.26, 14.77 -9.98, 0 0" stroke="#1e1e1e" stroke-width="4" fill="none"></path></g></g><mask></mask><g stroke-linecap="round"><g transform="translate(152.72434319187641 196.37672290603894) rotate(0 12.730802858868856 19.969084470024086)"><path d="M0 0 C7.01 -2.83, 11.27 -7.71, 26.16 -13.95 M0 0 C7.53 -4.89, 15.96 -8.08, 26.16 -13.95 M26.16 -13.95 C27.42 0.35, 24.78 16.81, 25.29 52.9 M26.16 -13.95 C25.12 3.06, 25.14 19.18, 25.29 52.9 M25.29 52.9 C16.5 52.67, 7.08 53.67, -0.87 53.78 M25.29 52.9 C15.48 53.45, 4.23 54.18, -0.87 53.78 M-0.87 53.78 C-0.35 41.89, -0.75 31.69, 0 0 M-0.87 53.78 C-1.34 38.89, -0.79 23.94, 0 0" stroke="#1e1e1e" stroke-width="4" fill="none"></path></g></g><mask></mask><g stroke-linecap="round"><g transform="translate(184.4085660185856 179.80790913427415) rotate(0 22.091751695687435 12.353940092982953)"><path d="M0 0 C4.18 -3.1, 9.23 -6.14, 18.89 -11.34 M0 0 C4.87 -2.49, 9.56 -5.1, 18.89 -11.34 M18.89 -11.34 C24.75 -3.88, 29.86 4.31, 44.18 22.67 M18.89 -11.34 C23.87 -4.4, 29.77 3.38, 44.18 22.67 M44.18 22.67 C31.3 26.96, 16.27 30.94, 1.74 36.04 M44.18 22.67 C31.9 26.41, 19.95 29.95, 1.74 36.04 M1.74 36.04 C1.27 27.53, 0.01 19.84, 0 0 M1.74 36.04 C1.33 27.02, 0.9 18.05, 0 0" stroke="#1e1e1e" stroke-width="4" fill="none"></path></g></g><mask></mask><g stroke-linecap="round"><g transform="translate(185.86197073540734 221.95664592209857) rotate(0 35.246331827906715 6.5403212256968)"><path d="M0 0 C-0.82 10.59, 2.23 17.16, 0.87 27.32 M0 0 C-0.47 6.92, 0.67 15.26, 0.87 27.32 M0.87 27.32 C23.17 23.36, 43.52 22.98, 70.64 17.73 M0.87 27.32 C20 24.86, 40.14 21.42, 70.64 17.73 M70.64 17.73 C61.75 7.73, 52.05 -4.76, 45.35 -14.24 M70.64 17.73 C62.33 7.11, 55.4 -1.75, 45.35 -14.24 M45.35 -14.24 C32.5 -10.53, 19.63 -7.2, 0 0 M45.35 -14.24 C29.28 -9, 13.15 -4.79, 0 0" stroke="#1e1e1e" stroke-width="4" fill="none"></path></g></g><mask></mask><g stroke-linecap="round"><g transform="translate(77.14729791715399 56.559189147808524) rotate(0 -30.521499053252 14.970068583261764)"><path d="M0 0 C-10.9 -1.45, -23.98 -1.88, -58.43 -4.65 M0 0 C-12.77 -1.39, -23.58 -1.15, -58.43 -4.65 M-58.43 -4.65 C-57.83 6.01, -58.69 18.7, -61.04 27.61 M-58.43 -4.65 C-59.51 4.61, -60.7 13.93, -61.04 27.61 M-61.04 27.61 C-46.89 27.77, -36.42 28.78, 0 34.59 M-61.04 27.61 C-44.38 30.57, -25.94 31.67, 0 34.59 M0 34.59 C-1.12 25.02, -0.77 19.12, 0 0 M0 34.59 C-0.61 25.21, -0.55 15.98, 0 0" stroke="#1e1e1e" stroke-width="4" fill="none"></path></g></g><mask></mask><g stroke-linecap="round"><g transform="translate(137.0275722502015 123.12512517823427) rotate(0 -21.086254940466915 17.4408566018584)"><path d="M0 0 C-16.77 -5.43, -28.96 -10.16, -42.15 -12.21 M0 0 C-8.86 -2.75, -19.42 -6.09, -42.15 -12.21 M-42.15 -12.21 C-42.13 8.59, -43.25 25.35, -41.57 43.89 M-42.15 -12.21 C-42.26 4.24, -42.01 21.42, -41.57 43.89 M-41.57 43.89 C-28.02 45.31, -15.2 45.88, -0.29 47.09 M-41.57 43.89 C-33.26 43.82, -22.19 45.79, -0.29 47.09 M-0.29 47.09 C-1.62 34.9, -1.53 24.08, 0 0 M-0.29 47.09 C0.13 36.27, 0.68 28.09, 0 0" stroke="#1e1e1e" stroke-width="4" fill="none"></path></g></g><mask></mask><g stroke-linecap="round"><g transform="translate(96.62292112256318 173.41292838025936) rotate(0 19.43591333087329 25.72526348774113)"><path d="M0 0 C13.73 0.61, 32.33 2.95, 41.28 2.91 M0 0 C14.14 0.96, 28.93 2.97, 41.28 2.91 M41.28 2.91 C40.33 14.08, 39.22 21.73, 40.11 51.45 M41.28 2.91 C41.89 18.59, 40.43 34.61, 40.11 51.45 M40.11 51.45 C26.79 50.75, 11.56 50.83, -2.33 48.54 M40.11 51.45 C28.4 50.55, 15.59 49.55, -2.33 48.54 M-2.33 48.54 C-3.35 35.69, -0.59 20.22, 0 0 M-2.33 48.54 C-1.72 31.26, -0.02 12.68, 0 0" stroke="#1e1e1e" stroke-width="4" fill="none"></path></g></g><mask></mask><g stroke-linecap="round"><g transform="translate(51.27669395773137 105.97494951974033) rotate(0 15.260749526626114 21.219708865594328)"><path d="M0 0 C14.52 1.78, 28.24 2.26, 36.04 3.2 M0 0 C8.89 0.32, 17.94 1.03, 36.04 3.2 M36.04 3.2 C35.47 18.57, 34.48 33.35, 33.43 42.44 M36.04 3.2 C35.13 13.79, 34.79 24.83, 33.43 42.44 M33.43 42.44 C20.09 40.07, 7.67 39.32, -5.52 38.37 M33.43 42.44 C24.29 41.01, 16.38 40.76, -5.52 38.37 M-5.52 38.37 C-3.22 26.7, -3.05 13.95, 0 0 M-5.52 38.37 C-3.75 28.48, -3.07 18.35, 0 0" stroke="#1e1e1e" stroke-width="4" fill="none"></path></g></g><mask></mask><g stroke-linecap="round"><g transform="translate(13.778852263735644 103.35882102946152) rotate(0 13.516663866440467 20.493006507183566)"><path d="M0 0 C-1.76 10.56, -2.1 20.92, -3.78 39.24 M0 0 C-0.56 9.59, -2.03 18.84, -3.78 39.24 M-3.78 39.24 C6.59 40.83, 16.03 40.65, 25 40.99 M-3.78 39.24 C5.66 39.67, 15.48 40.39, 25 40.99 M25 40.99 C26.48 28.02, 29.46 15.43, 30.81 1.45 M25 40.99 C26.24 30.74, 28.59 20.52, 30.81 1.45 M30.81 1.45 C18.7 0.71, 6.73 0.25, 0 0 M30.81 1.45 C23.87 1.42, 18.06 0.45, 0 0" stroke="#1e1e1e" stroke-width="4" fill="none"></path></g></g><mask></mask></svg>